<svg width="18" height="19" viewBox="0 0 18 19" fill="none" xmlns="http://www.w3.org/2000/svg">
<path d="M12.3647 9.51355L17.251 4.62732C17.8506 4.02771 17.8506 3.05554 17.251 2.45544L16.165 1.36951C15.5654 0.769897 14.5933 0.769897 13.9932 1.36951L9.10693 6.25574L4.2207 1.36951C3.62109 0.769897 2.64893 0.769897 2.04883 1.36951L0.962891 2.45544C0.363281 3.05505 0.363281 4.02722 0.962891 4.62732L5.84912 9.51355L0.962891 14.3998C0.363281 14.9994 0.363281 15.9716 0.962891 16.5717L2.04883 17.6576C2.64844 18.2572 3.62109 18.2572 4.2207 17.6576L9.10693 12.7714L13.9932 17.6576C14.5928 18.2572 15.5654 18.2572 16.165 17.6576L17.251 16.5717C17.8506 15.972 17.8506 14.9999 17.251 14.3998L12.3647 9.51355Z" fill="black"/>
</svg>
